<svg xmlns="http://www.w3.org/2000/svg" xmlns:xlink="http://www.w3.org/1999/xlink" width="500" zoomAndPan="magnify" viewBox="0 0 375 374.999991" height="500" preserveAspectRatio="xMidYMid meet" version="1.0"><defs><g/></defs><path fill="#5e17eb" d="M 230.804688 120.957031 C 230.382812 121.375 229.898438 121.746094 229.359375 122.054688 C 226.109375 123.898438 221.980469 122.761719 220.136719 119.515625 C 217.148438 114.25 213.4375 109.390625 209.109375 105.066406 C 206.46875 102.421875 206.46875 98.140625 209.109375 95.5 C 211.75 92.859375 216.03125 92.859375 218.675781 95.5 C 223.855469 100.683594 228.308594 106.511719 231.898438 112.832031 C 233.433594 115.539062 232.902344 118.855469 230.804688 120.957031 " fill-opacity="1" fill-rule="nonzero"/><path fill="#5e17eb" d="M 196.984375 89.972656 C 195.042969 91.914062 192.027344 92.546875 189.386719 91.339844 C 173.605469 84.132812 155.152344 83.300781 138.75 89.058594 C 135.226562 90.292969 131.363281 88.441406 130.128906 84.917969 C 128.890625 81.390625 130.746094 77.53125 134.269531 76.296875 C 154.226562 69.285156 175.796875 70.261719 195.007812 79.039062 C 198.40625 80.589844 199.902344 84.601562 198.351562 88 C 198.003906 88.753906 197.535156 89.417969 196.984375 89.972656 " fill-opacity="1" fill-rule="nonzero"/><path fill="#5e17eb" d="M 161.238281 243.117188 C 137.148438 243.117188 114.5 233.738281 97.46875 216.703125 C 80.4375 199.671875 71.058594 177.027344 71.058594 152.941406 C 71.058594 128.851562 80.4375 106.207031 97.46875 89.175781 C 114.5 72.140625 137.148438 62.761719 161.238281 62.761719 C 185.324219 62.761719 207.96875 72.140625 225 89.175781 C 242.03125 106.207031 251.414062 128.851562 251.414062 152.941406 C 251.414062 177.027344 242.03125 199.671875 225 216.703125 C 207.96875 233.738281 185.324219 243.117188 161.238281 243.117188 Z M 328.339844 290.523438 L 250.878906 221.289062 C 284.660156 177.097656 281.351562 113.640625 240.941406 73.230469 C 196.921875 29.210938 125.550781 29.210938 81.527344 73.230469 C 37.507812 117.253906 37.507812 188.625 81.527344 232.644531 C 121.9375 273.054688 185.394531 276.363281 229.585938 242.582031 L 298.820312 320.042969 C 306.824219 328.992188 320.703125 329.382812 329.191406 320.890625 C 337.679688 312.40625 337.289062 298.527344 328.339844 290.523438 " fill-opacity="1" fill-rule="nonzero"/><g fill="#5e17eb" fill-opacity="1"><g transform="translate(103.620833, 195.382911)"><g><path d="M 9.671875 0 L 9.671875 -76.890625 L 25.984375 -76.890625 L 25.984375 0 Z M 9.671875 0 "/></g></g></g><g fill="#5e17eb" fill-opacity="1"><g transform="translate(139.281584, 195.382911)"><g><path d="M 56.75 0 L 51.171875 -18.296875 L 23.140625 -18.296875 L 17.5625 0 L 0 0 L 27.140625 -77.21875 L 47.078125 -77.21875 L 74.3125 0 Z M 47.28125 -31.984375 C 42.125 -48.566406 39.222656 -57.941406 38.578125 -60.109375 C 37.929688 -62.285156 37.46875 -64.003906 37.1875 -65.265625 C 36.03125 -60.785156 32.71875 -49.691406 27.25 -31.984375 Z M 47.28125 -31.984375 "/></g></g></g></svg>